<?xml version="1.0" encoding="UTF-8" standalone="no"?>
<svg
   xmlns:dc="http://purl.org/dc/elements/1.1/"
   xmlns:cc="http://creativecommons.org/ns#"
   xmlns:rdf="http://www.w3.org/1999/02/22-rdf-syntax-ns#"
   xmlns:svg="http://www.w3.org/2000/svg"
   xmlns="http://www.w3.org/2000/svg"
   xmlns:sodipodi="http://sodipodi.sourceforge.net/DTD/sodipodi-0.dtd"
   xmlns:inkscape="http://www.inkscape.org/namespaces/inkscape"
   preserveAspectRatio="xMidYMid"
   width="20"
   height="20"
   viewBox="0 0 20 20"
   id="svg2"
   version="1.1"
   inkscape:version="0.48.4 r9939"
   sodipodi:docname="pattern.svg">
  <metadata
     id="metadata12">
    <rdf:RDF>
      <cc:Work
         rdf:about="">
        <dc:format>image/svg+xml</dc:format>
        <dc:type
           rdf:resource="http://purl.org/dc/dcmitype/StillImage" />
      </cc:Work>
    </rdf:RDF>
  </metadata>
  <sodipodi:namedview
     pagecolor="#ffffff"
     bordercolor="#666666"
     borderopacity="1"
     objecttolerance="10"
     gridtolerance="10"
     guidetolerance="10"
     inkscape:pageopacity="0"
     inkscape:pageshadow="2"
     inkscape:window-width="1252"
     inkscape:window-height="742"
     id="namedview10"
     showgrid="false"
     inkscape:zoom="11.8"
     inkscape:cx="-2.7966102"
     inkscape:cy="10"
     inkscape:window-x="164"
     inkscape:window-y="30"
     inkscape:window-maximized="0"
     inkscape:current-layer="svg2" />
  <defs
     id="defs4">
    <style
       id="style6">
      .cls-1 {
        fill: #000;
        fill-rule: evenodd;
      }
    </style>
  </defs>
  <path
     d="M19.000,14.000 L19.000,13.000 L20.000,13.000 L20.000,14.000 L19.000,14.000 ZM18.000,15.000 L18.000,14.000 L19.000,14.000 L19.000,15.000 L18.000,15.000 ZM17.000,16.000 L17.000,15.000 L18.000,15.000 L18.000,16.000 L17.000,16.000 ZM16.000,17.000 L16.000,16.000 L17.000,16.000 L17.000,17.000 L16.000,17.000 ZM15.000,18.000 L15.000,17.000 L16.000,17.000 L16.000,18.000 L15.000,18.000 ZM14.000,19.000 L14.000,18.000 L15.000,18.000 L15.000,19.000 L14.000,19.000 ZM13.000,20.000 L13.000,19.000 L14.000,19.000 L14.000,20.000 L13.000,20.000 ZM18.000,5.000 L18.000,4.000 L19.000,4.000 L19.000,5.000 L18.000,5.000 ZM17.000,6.000 L17.000,5.000 L18.000,5.000 L18.000,6.000 L17.000,6.000 ZM16.000,7.000 L16.000,6.000 L17.000,6.000 L17.000,7.000 L16.000,7.000 ZM15.000,8.000 L15.000,7.000 L16.000,7.000 L16.000,8.000 L15.000,8.000 ZM14.000,9.000 L14.000,8.000 L15.000,8.000 L15.000,9.000 L14.000,9.000 ZM13.000,10.000 L13.000,9.000 L14.000,9.000 L14.000,10.000 L13.000,10.000 ZM12.000,11.000 L12.000,10.000 L13.000,10.000 L13.000,11.000 L12.000,11.000 ZM11.000,12.000 L11.000,11.000 L12.000,11.000 L12.000,12.000 L11.000,12.000 ZM10.000,13.000 L10.000,12.000 L11.000,12.000 L11.000,13.000 L10.000,13.000 ZM9.000,14.000 L9.000,13.000 L10.000,13.000 L10.000,14.000 L9.000,14.000 ZM8.000,15.000 L8.000,14.000 L9.000,14.000 L9.000,15.000 L8.000,15.000 ZM7.000,16.000 L7.000,15.000 L8.000,15.000 L8.000,16.000 L7.000,16.000 ZM6.000,17.000 L6.000,16.000 L7.000,16.000 L7.000,17.000 L6.000,17.000 ZM5.000,18.000 L5.000,17.000 L6.000,17.000 L6.000,18.000 L5.000,18.000 ZM4.000,19.000 L4.000,18.000 L5.000,18.000 L5.000,19.000 L4.000,19.000 ZM3.000,20.000 L3.000,19.000 L4.000,19.000 L4.000,20.000 L3.000,20.000 ZM19.000,3.000 L20.000,3.000 L20.000,4.000 L19.000,4.000 L19.000,3.000 ZM11.000,2.000 L11.000,1.000 L12.000,1.000 L12.000,2.000 L11.000,2.000 ZM10.000,3.000 L10.000,2.000 L11.000,2.000 L11.000,3.000 L10.000,3.000 ZM9.000,4.000 L9.000,3.000 L10.000,3.000 L10.000,4.000 L9.000,4.000 ZM8.000,5.000 L8.000,4.000 L9.000,4.000 L9.000,5.000 L8.000,5.000 ZM7.000,6.000 L7.000,5.000 L8.000,5.000 L8.000,6.000 L7.000,6.000 ZM6.000,7.000 L6.000,6.000 L7.000,6.000 L7.000,7.000 L6.000,7.000 ZM5.000,8.000 L5.000,7.000 L6.000,7.000 L6.000,8.000 L5.000,8.000 ZM4.000,9.000 L4.000,8.000 L5.000,8.000 L5.000,9.000 L4.000,9.000 ZM3.000,10.000 L3.000,9.000 L4.000,9.000 L4.000,10.000 L3.000,10.000 ZM2.000,11.000 L2.000,10.000 L3.000,10.000 L3.000,11.000 L2.000,11.000 ZM1.000,12.000 L1.000,11.000 L2.000,11.000 L2.000,12.000 L1.000,12.000 ZM0.000,13.000 L0.000,12.000 L1.000,12.000 L1.000,13.000 L0.000,13.000 ZM12.000,0.000 L13.000,0.000 L13.000,1.000 L12.000,1.000 L12.000,0.000 ZM1.000,2.000 L1.000,1.000 L2.000,1.000 L2.000,2.000 L1.000,2.000 ZM0.000,3.000 L0.000,2.000 L1.000,2.000 L1.000,3.000 L0.000,3.000 ZM2.000,0.000 L3.000,0.000 L3.000,1.000 L2.000,1.000 L2.000,0.000 Z"
     class="cls-1"
     id="path8"
     style="opacity:0.2" />
</svg>
